# xmcd CD database file
#
# Track frame offsets:
#	150
#	13937
#	31907
#	43369
#	61416
#	74253
#	99729
#	116867
#	133869
#	147890
#	162430
#	176821
#
# Disc length: 2560 seconds
#
# Revision: 0
# Processed by: cddbd v1.5.2PL0 Copyright (c) Steve Scherf et al.
# Submitted via: CDex 1.78
#
DISCID=b909fe0c
DTITLE=Emmylou Harris - Elite Hotel
DYEAR=1975
DGENRE=Country
TTITLE0=Emmylou Harris - Amarillo
TTITLE1=Emmylou Harris - Together Again
TTITLE2=Emmylou Harris - Feelin' Single-Seein' Double
TTITLE3=Emmylou Harris - Sin City
TTITLE4=Emmylou Harris - One of these days
TTITLE5=Emmylou Harris - Till I Gain Control Again
TTITLE6=Emmylou Harris - Here, There and Everywhere
TTITLE7=Emmylou Harris - Ooh Las Vegas
TTITLE8=Emmylou Harris - Sweet Dreams
TTITLE9=Emmylou Harris - Jambalaya
TTITLE10=Emmylou Harris - Satans jewel crown
TTITLE11=Emmylou Harris - Wheels
EXTD=YEAR: 1975
EXTT0=
EXTT1=
EXTT2=
EXTT3=
EXTT4=
EXTT5=
EXTT6=
EXTT7=
EXTT8=
EXTT9=
EXTT10=
EXTT11=
PLAYORDER=
